<svg width="27" height="27" viewBox="0 0 27 27" fill="none" xmlns="http://www.w3.org/2000/svg">
<path fill-rule="evenodd" clip-rule="evenodd" d="M4.79998 8.9999H5.69998C6.35998 8.9999 6.89998 8.4599 6.89998 7.7999V6.5999C6.89998 5.9399 6.35998 5.3999 5.69998 5.3999H4.79998C4.13998 5.3999 3.59998 5.9399 3.59998 6.5999V7.7999C3.59998 8.4599 4.13998 8.9999 4.79998 8.9999ZM8.84998 8.3999C8.60998 8.3999 8.39998 8.1899 8.39998 7.9499V6.4499C8.39998 6.2099 8.60998 5.9999 8.84998 5.9999H23.25C23.49 5.9999 23.7 6.2099 23.7 6.4499V7.9499C23.7 8.1899 23.49 8.3999 23.25 8.3999H8.84998ZM8.39998 14.2499C8.39998 14.4899 8.60998 14.6999 8.84998 14.6999H23.25C23.49 14.6999 23.7 14.4899 23.7 14.2499V12.7499C23.7 12.5099 23.49 12.2999 23.25 12.2999H8.84998C8.60998 12.2999 8.39998 12.5099 8.39998 12.7499V14.2499ZM8.39998 20.5499C8.39998 20.7899 8.60998 20.9999 8.84998 20.9999H23.25C23.49 20.9999 23.7 20.7899 23.7 20.5499V19.0499C23.7 18.8099 23.49 18.5999 23.25 18.5999H8.84998C8.60998 18.5999 8.39998 18.8099 8.39998 19.0499V20.5499ZM4.79998 21.5999H5.69998C6.35998 21.5999 6.89998 21.0599 6.89998 20.3999V19.1999C6.89998 18.5399 6.35998 17.9999 5.69998 17.9999H4.79998C4.13998 17.9999 3.59998 18.5399 3.59998 19.1999V20.3999C3.59998 21.0599 4.13998 21.5999 4.79998 21.5999ZM5.69998 15.2999H4.79998C4.13998 15.2999 3.59998 14.7599 3.59998 14.0999V12.8999C3.59998 12.2399 4.13998 11.6999 4.79998 11.6999H5.69998C6.35998 11.6999 6.89998 12.2399 6.89998 12.8999V14.0999C6.89998 14.7599 6.35998 15.2999 5.69998 15.2999Z" fill="black"/>
</svg>
