<svg width="27" height="27" viewBox="0 0 27 27" fill="none" xmlns="http://www.w3.org/2000/svg">
<path fill-rule="evenodd" clip-rule="evenodd" d="M23.0699 14.5647H21.5699V14.5647V22.0543C21.5699 22.7134 21.0299 23.2527 20.3699 23.2527H6.56993C5.90993 23.2527 5.36993 22.7134 5.36993 22.0543V14.5647V14.5647H3.86993L3.47993 14.1753C3.23993 13.9356 3.23993 13.5761 3.47993 13.3365L13.0499 3.77973C13.2899 3.54006 13.6499 3.54006 13.8899 3.77973L14.1899 4.07931V4.07931L23.4599 13.3365C23.6999 13.5761 23.6999 13.9356 23.4599 14.1753L23.0699 14.5647ZM19.4399 12.4677L13.4399 6.47598L7.43993 12.4677V20.5564C7.43993 20.886 7.70993 21.1556 8.03993 21.1556H18.8399C19.1699 21.1556 19.4399 20.886 19.4399 20.5564V12.4677Z" fill="black"/>
</svg>
