<svg width="27" height="27" viewBox="0 0 27 27" fill="none" xmlns="http://www.w3.org/2000/svg">
<path fill-rule="evenodd" clip-rule="evenodd" d="M6.71992 23.6999C6.14994 23.6999 5.69995 23.2199 5.69995 22.6499L6.38993 11.5499C6.38993 10.9799 6.83992 10.4999 7.4099 10.4999H19.5896C20.1596 10.4999 20.6095 10.9799 20.6095 11.5499L21.2995 22.6499C21.2995 23.2199 20.8495 23.6999 20.2796 23.6999H6.71992ZM10.3799 11.9999C9.95994 11.9999 9.59995 12.3599 9.59995 12.7799C9.59995 13.1999 9.95994 13.5599 10.3799 13.5599C10.7999 13.5599 11.1599 13.1999 11.1599 12.7799C11.1599 12.3599 10.8299 11.9999 10.3799 11.9999ZM16.3799 11.9999C15.9599 11.9999 15.5999 12.3599 15.5999 12.7799C15.5999 13.1999 15.9599 13.5599 16.3799 13.5599C16.7999 13.5599 17.1599 13.1999 17.1599 12.7799C17.1599 12.3599 16.8299 11.9999 16.3799 11.9999ZM15.8398 7.22993C15.8398 5.78993 14.9098 4.85993 13.4998 4.85993C12.0899 4.85993 11.1599 5.75993 11.1599 7.22993V9.59993H9.59995V7.22993C9.59995 5.00993 11.3399 3.29993 13.4998 3.29993C15.6598 3.29993 17.3997 5.00993 17.3997 7.22993V9.59993H15.8398V7.22993Z" fill="black"/>
</svg>
