<svg width="27" height="27" viewBox="0 0 27 27" fill="none" xmlns="http://www.w3.org/2000/svg">
<path fill-rule="evenodd" clip-rule="evenodd" d="M17.5484 18.4988C20.3272 19.5246 23.571 20.4245 23.0429 23.6999H3.95771C3.42656 20.4245 6.65844 19.5246 9.4402 18.4988C10.3316 18.2346 11.0022 17.4972 11.1807 16.5852C11.2547 16.1201 11.1701 15.6436 10.9406 15.2324C10.366 14.4625 9.88169 13.6291 9.49721 12.7488C9.06809 12.5449 8.63898 11.747 8.45293 10.9761C8.26688 10.2053 8.38391 9.69835 8.705 9.45239C8.705 8.59754 8.77702 6.75286 9.04409 5.74203C9.77815 4.42758 11.1816 3.62912 12.6871 3.66939L13.8424 3.31545C13.8424 3.31545 14.9977 3.09049 17.2693 4.35327C17.9198 5.97614 18.2677 7.70433 18.2956 9.45239C18.6167 9.69835 18.7307 10.2053 18.5447 10.9731C18.3586 11.741 17.9055 12.5868 17.4644 12.7728C17.1042 13.6525 16.6322 14.4822 16.06 15.2414C15.8378 15.6 15.7378 16.021 15.7749 16.4412C15.8949 17.227 16.3421 18.0549 17.5484 18.4988Z" fill="black"/>
</svg>
